<svg xmlns="http://www.w3.org/2000/svg" viewBox="0 0 512 512" width="512" height="512">
<defs>
  <linearGradient id="gtext" x1="0%" y1="0%" x2="100%" y2="100%">
    <stop offset="0%" style="stop-color:#FFF5A0"/>
    <stop offset="40%" style="stop-color:#FFD700"/>
    <stop offset="100%" style="stop-color:#B8860B"/>
  </linearGradient>
  <clipPath id="iconclip">
    <rect x="0" y="0" width="512" height="512" rx="100" ry="100"/>
  </clipPath>
</defs>
<rect x="0" y="0" width="512" height="512" rx="100" fill="#080e09"/>
<g clip-path="url(#iconclip)" fill="none" stroke="#FFD700" stroke-width="1.2" opacity="0.28">
  <polygon points="153.00,110.51 141.50,130.43 118.50,130.43 107.00,110.51 118.50,90.59 141.50,90.59"/>
  <polygon points="153.00,152.08 141.50,172.00 118.50,172.00 107.00,152.08 118.50,132.16 141.50,132.16"/>
  <polygon points="153.00,193.65 141.50,213.56 118.50,213.56 107.00,193.65 118.50,173.73 141.50,173.73"/>
  <polygon points="153.00,235.22 141.50,255.13 118.50,255.13 107.00,235.22 118.50,215.30 141.50,215.30"/>
  <polygon points="153.00,276.78 141.50,296.70 118.50,296.70 107.00,276.78 118.50,256.87 141.50,256.87"/>
  <polygon points="153.00,318.35 141.50,338.27 118.50,338.27 107.00,318.35 118.50,298.44 141.50,298.44"/>
  <polygon points="153.00,359.92 141.50,379.84 118.50,379.84 107.00,359.92 118.50,340.00 141.50,340.00"/>
  <polygon points="153.00,401.49 141.50,421.41 118.50,421.41 107.00,401.49 118.50,381.57 141.50,381.57"/>
  <polygon points="153.00,443.06 141.50,462.98 118.50,462.98 107.00,443.06 118.50,423.14 141.50,423.14"/>
  <polygon points="153.00,484.63 141.50,504.55 118.50,504.55 107.00,484.63 118.50,464.71 141.50,464.71"/>
  <polygon points="189.00,131.29 177.50,151.21 154.50,151.21 143.00,131.29 154.50,111.37 177.50,111.37"/>
  <polygon points="189.00,172.86 177.50,192.78 154.50,192.78 143.00,172.86 154.50,152.94 177.50,152.94"/>
  <polygon points="189.00,214.43 177.50,234.35 154.50,234.35 143.00,214.43 154.50,194.51 177.50,194.51"/>
  <polygon points="189.00,256.00 177.50,275.92 154.50,275.92 143.00,256.00 154.50,236.08 177.50,236.08"/>
  <polygon points="189.00,297.57 177.50,317.49 154.50,317.49 143.00,297.57 154.50,277.65 177.50,277.65"/>
  <polygon points="189.00,339.14 177.50,359.06 154.50,359.06 143.00,339.14 154.50,319.22 177.50,319.22"/>
  <polygon points="189.00,380.71 177.50,400.63 154.50,400.63 143.00,380.71 154.50,360.79 177.50,360.79"/>
  <polygon points="189.00,422.28 177.50,442.20 154.50,442.20 143.00,422.28 154.50,402.36 177.50,402.36"/>
  <polygon points="189.00,463.85 177.50,483.76 154.50,483.76 143.00,463.85 154.50,443.93 177.50,443.93"/>
  <polygon points="189.00,505.42 177.50,525.33 154.50,525.33 143.00,505.42 154.50,485.50 177.50,485.50"/>
  <polygon points="225.00,110.51 213.50,130.43 190.50,130.43 179.00,110.51 190.50,90.59 213.50,90.59"/>
  <polygon points="225.00,152.08 213.50,172.00 190.50,172.00 179.00,152.08 190.50,132.16 213.50,132.16"/>
  <polygon points="225.00,193.65 213.50,213.56 190.50,213.56 179.00,193.65 190.50,173.73 213.50,173.73"/>
  <polygon points="225.00,235.22 213.50,255.13 190.50,255.13 179.00,235.22 190.50,215.30 213.50,215.30"/>
  <polygon points="225.00,276.78 213.50,296.70 190.50,296.70 179.00,276.78 190.50,256.87 213.50,256.87"/>
  <polygon points="225.00,318.35 213.50,338.27 190.50,338.27 179.00,318.35 190.50,298.44 213.50,298.44"/>
  <polygon points="225.00,359.92 213.50,379.84 190.50,379.84 179.00,359.92 190.50,340.00 213.50,340.00"/>
  <polygon points="225.00,401.49 213.50,421.41 190.50,421.41 179.00,401.49 190.50,381.57 213.50,381.57"/>
  <polygon points="225.00,443.06 213.50,462.98 190.50,462.98 179.00,443.06 190.50,423.14 213.50,423.14"/>
  <polygon points="225.00,484.63 213.50,504.55 190.50,504.55 179.00,484.63 190.50,464.71 213.50,464.71"/>
  <polygon points="261.00,131.29 249.50,151.21 226.50,151.21 215.00,131.29 226.50,111.37 249.50,111.37"/>
  <polygon points="261.00,172.86 249.50,192.78 226.50,192.78 215.00,172.86 226.50,152.94 249.50,152.94"/>
  <polygon points="261.00,214.43 249.50,234.35 226.50,234.35 215.00,214.43 226.50,194.51 249.50,194.51"/>
  <polygon points="261.00,256.00 249.50,275.92 226.50,275.92 215.00,256.00 226.50,236.08 249.50,236.08"/>
  <polygon points="261.00,297.57 249.50,317.49 226.50,317.49 215.00,297.57 226.50,277.65 249.50,277.65"/>
  <polygon points="261.00,339.14 249.50,359.06 226.50,359.06 215.00,339.14 226.50,319.22 249.50,319.22"/>
  <polygon points="261.00,380.71 249.50,400.63 226.50,400.63 215.00,380.71 226.50,360.79 249.50,360.79"/>
  <polygon points="261.00,422.28 249.50,442.20 226.50,442.20 215.00,422.28 226.50,402.36 249.50,402.36"/>
  <polygon points="261.00,463.85 249.50,483.76 226.50,483.76 215.00,463.85 226.50,443.93 249.50,443.93"/>
  <polygon points="261.00,505.42 249.50,525.33 226.50,525.33 215.00,505.42 226.50,485.50 249.50,485.50"/>
  <polygon points="297.00,110.51 285.50,130.43 262.50,130.43 251.00,110.51 262.50,90.59 285.50,90.59"/>
  <polygon points="297.00,152.08 285.50,172.00 262.50,172.00 251.00,152.08 262.50,132.16 285.50,132.16"/>
  <polygon points="297.00,193.65 285.50,213.56 262.50,213.56 251.00,193.65 262.50,173.73 285.50,173.73"/>
  <polygon points="297.00,235.22 285.50,255.13 262.50,255.13 251.00,235.22 262.50,215.30 285.50,215.30"/>
  <polygon points="297.00,276.78 285.50,296.70 262.50,296.70 251.00,276.78 262.50,256.87 285.50,256.87"/>
  <polygon points="297.00,318.35 285.50,338.27 262.50,338.27 251.00,318.35 262.50,298.44 285.50,298.44"/>
  <polygon points="297.00,359.92 285.50,379.84 262.50,379.84 251.00,359.92 262.50,340.00 285.50,340.00"/>
  <polygon points="297.00,401.49 285.50,421.41 262.50,421.41 251.00,401.49 262.50,381.57 285.50,381.57"/>
  <polygon points="297.00,443.06 285.50,462.98 262.50,462.98 251.00,443.06 262.50,423.14 285.50,423.14"/>
  <polygon points="297.00,484.63 285.50,504.55 262.50,504.55 251.00,484.63 262.50,464.71 285.50,464.71"/>
  <polygon points="333.00,131.29 321.50,151.21 298.50,151.21 287.00,131.29 298.50,111.37 321.50,111.37"/>
  <polygon points="333.00,172.86 321.50,192.78 298.50,192.78 287.00,172.86 298.50,152.94 321.50,152.94"/>
  <polygon points="333.00,214.43 321.50,234.35 298.50,234.35 287.00,214.43 298.50,194.51 321.50,194.51"/>
  <polygon points="333.00,256.00 321.50,275.92 298.50,275.92 287.00,256.00 298.50,236.08 321.50,236.08"/>
  <polygon points="333.00,297.57 321.50,317.49 298.50,317.49 287.00,297.57 298.50,277.65 321.50,277.65"/>
  <polygon points="333.00,339.14 321.50,359.06 298.50,359.06 287.00,339.14 298.50,319.22 321.50,319.22"/>
  <polygon points="333.00,380.71 321.50,400.63 298.50,400.63 287.00,380.71 298.50,360.79 321.50,360.79"/>
  <polygon points="333.00,422.28 321.50,442.20 298.50,442.20 287.00,422.28 298.50,402.36 321.50,402.36"/>
  <polygon points="333.00,463.85 321.50,483.76 298.50,483.76 287.00,463.85 298.50,443.93 321.50,443.93"/>
  <polygon points="333.00,505.42 321.50,525.33 298.50,525.33 287.00,505.42 298.50,485.50 321.50,485.50"/>
  <polygon points="369.00,110.51 357.50,130.43 334.50,130.43 323.00,110.51 334.50,90.59 357.50,90.59"/>
  <polygon points="369.00,152.08 357.50,172.00 334.50,172.00 323.00,152.08 334.50,132.16 357.50,132.16"/>
  <polygon points="369.00,193.65 357.50,213.56 334.50,213.56 323.00,193.65 334.50,173.73 357.50,173.73"/>
  <polygon points="369.00,235.22 357.50,255.13 334.50,255.13 323.00,235.22 334.50,215.30 357.50,215.30"/>
  <polygon points="369.00,276.78 357.50,296.70 334.50,296.70 323.00,276.78 334.50,256.87 357.50,256.87"/>
  <polygon points="369.00,318.35 357.50,338.27 334.50,338.27 323.00,318.35 334.50,298.44 357.50,298.44"/>
  <polygon points="369.00,359.92 357.50,379.84 334.50,379.84 323.00,359.92 334.50,340.00 357.50,340.00"/>
  <polygon points="369.00,401.49 357.50,421.41 334.50,421.41 323.00,401.49 334.50,381.57 357.50,381.57"/>
  <polygon points="369.00,443.06 357.50,462.98 334.50,462.98 323.00,443.06 334.50,423.14 357.50,423.14"/>
  <polygon points="369.00,484.63 357.50,504.55 334.50,504.55 323.00,484.63 334.50,464.71 357.50,464.71"/>
  <polygon points="405.00,131.29 393.50,151.21 370.50,151.21 359.00,131.29 370.50,111.37 393.50,111.37"/>
  <polygon points="405.00,172.86 393.50,192.78 370.50,192.78 359.00,172.86 370.50,152.94 393.50,152.94"/>
  <polygon points="405.00,214.43 393.50,234.35 370.50,234.35 359.00,214.43 370.50,194.51 393.50,194.51"/>
  <polygon points="405.00,256.00 393.50,275.92 370.50,275.92 359.00,256.00 370.50,236.08 393.50,236.08"/>
  <polygon points="405.00,297.57 393.50,317.49 370.50,317.49 359.00,297.57 370.50,277.65 393.50,277.65"/>
  <polygon points="405.00,339.14 393.50,359.06 370.50,359.06 359.00,339.14 370.50,319.22 393.50,319.22"/>
  <polygon points="405.00,380.71 393.50,400.63 370.50,400.63 359.00,380.71 370.50,360.79 393.50,360.79"/>
  <polygon points="405.00,422.28 393.50,442.20 370.50,442.20 359.00,422.28 370.50,402.36 393.50,402.36"/>
  <polygon points="405.00,463.85 393.50,483.76 370.50,483.76 359.00,463.85 370.50,443.93 393.50,443.93"/>
  <polygon points="405.00,505.42 393.50,525.33 370.50,525.33 359.00,505.42 370.50,485.50 393.50,485.50"/>
  <polygon points="441.00,110.51 429.50,130.43 406.50,130.43 395.00,110.51 406.50,90.59 429.50,90.59"/>
  <polygon points="441.00,152.08 429.50,172.00 406.50,172.00 395.00,152.08 406.50,132.16 429.50,132.16"/>
  <polygon points="441.00,193.65 429.50,213.56 406.50,213.56 395.00,193.65 406.50,173.73 429.50,173.73"/>
  <polygon points="441.00,235.22 429.50,255.13 406.50,255.13 395.00,235.22 406.50,215.30 429.50,215.30"/>
  <polygon points="441.00,276.78 429.50,296.70 406.50,296.70 395.00,276.78 406.50,256.87 429.50,256.87"/>
  <polygon points="441.00,318.35 429.50,338.27 406.50,338.27 395.00,318.35 406.50,298.44 429.50,298.44"/>
  <polygon points="441.00,359.92 429.50,379.84 406.50,379.84 395.00,359.92 406.50,340.00 429.50,340.00"/>
  <polygon points="441.00,401.49 429.50,421.41 406.50,421.41 395.00,401.49 406.50,381.57 429.50,381.57"/>
  <polygon points="441.00,443.06 429.50,462.98 406.50,462.98 395.00,443.06 406.50,423.14 429.50,423.14"/>
  <polygon points="441.00,484.63 429.50,504.55 406.50,504.55 395.00,484.63 406.50,464.71 429.50,464.71"/>
  <polygon points="477.00,131.29 465.50,151.21 442.50,151.21 431.00,131.29 442.50,111.37 465.50,111.37"/>
  <polygon points="477.00,172.86 465.50,192.78 442.50,192.78 431.00,172.86 442.50,152.94 465.50,152.94"/>
  <polygon points="477.00,214.43 465.50,234.35 442.50,234.35 431.00,214.43 442.50,194.51 465.50,194.51"/>
  <polygon points="477.00,256.00 465.50,275.92 442.50,275.92 431.00,256.00 442.50,236.08 465.50,236.08"/>
  <polygon points="477.00,297.57 465.50,317.49 442.50,317.49 431.00,297.57 442.50,277.65 465.50,277.65"/>
  <polygon points="477.00,339.14 465.50,359.06 442.50,359.06 431.00,339.14 442.50,319.22 465.50,319.22"/>
  <polygon points="477.00,380.71 465.50,400.63 442.50,400.63 431.00,380.71 442.50,360.79 465.50,360.79"/>
  <polygon points="477.00,422.28 465.50,442.20 442.50,442.20 431.00,422.28 442.50,402.36 465.50,402.36"/>
  <polygon points="477.00,463.85 465.50,483.76 442.50,483.76 431.00,463.85 442.50,443.93 465.50,443.93"/>
  <polygon points="477.00,505.42 465.50,525.33 442.50,525.33 431.00,505.42 442.50,485.50 465.50,485.50"/>
</g>
<circle cx="256" cy="256" r="108" fill="none" stroke="#FFD700" stroke-width="1.2" stroke-dasharray="4 8" opacity="0.5"/>
<circle cx="256" cy="256" r="74" fill="none" stroke="#FFD700" stroke-width="1.2" stroke-dasharray="4 6" opacity="0.55"/>
<circle cx="256" cy="256" r="42" fill="none" stroke="#FFD700" stroke-width="1.2" stroke-dasharray="3 5" opacity="0.6"/>
<line x1="256.0" y1="256.0" x2="256.0" y2="108.0" stroke="#FFD700" stroke-width="1.3" opacity="0.55"/>
<line x1="256.0" y1="256.0" x2="384.2" y2="330.0" stroke="#FFD700" stroke-width="1.3" opacity="0.55"/>
<line x1="256.0" y1="256.0" x2="127.8" y2="330.0" stroke="#FFD700" stroke-width="1.3" opacity="0.55"/>
<polygon points="266.00,174.00 261.00,182.66 251.00,182.66 246.00,174.00 251.00,165.34 261.00,165.34" fill="none" stroke="#FFD700" stroke-width="1.3" opacity="0.6"/>
<polygon points="337.01,297.00 332.01,305.66 322.01,305.66 317.01,297.00 322.01,288.34 332.01,288.34" fill="none" stroke="#FFD700" stroke-width="1.3" opacity="0.6"/>
<polygon points="194.99,297.00 189.99,305.66 179.99,305.66 174.99,297.00 179.99,288.34 189.99,288.34" fill="none" stroke="#FFD700" stroke-width="1.3" opacity="0.6"/>
<polygon points="282.00,108.00 269.00,130.52 243.00,130.52 230.00,108.00 243.00,85.48 269.00,85.48" fill="#0a1208" stroke="#FFD700" stroke-width="2" opacity="0.95"/>
<polygon points="276.00,108.00 266.00,125.32 246.00,125.32 236.00,108.00 246.00,90.68 266.00,90.68" fill="none" stroke="#FFD700" stroke-width="0.8" opacity="0.5"/>
<circle cx="256.0" cy="108.0" r="6" fill="#FFD700" opacity="0.95"/>
<polygon points="410.17,330.00 397.17,352.52 371.17,352.52 358.17,330.00 371.17,307.48 397.17,307.48" fill="#0a1208" stroke="#FFD700" stroke-width="2" opacity="0.95"/>
<polygon points="404.17,330.00 394.17,347.32 374.17,347.32 364.17,330.00 374.17,312.68 394.17,312.68" fill="none" stroke="#FFD700" stroke-width="0.8" opacity="0.5"/>
<circle cx="384.2" cy="330.0" r="6" fill="#FFD700" opacity="0.95"/>
<polygon points="153.83,330.00 140.83,352.52 114.83,352.52 101.83,330.00 114.83,307.48 140.83,307.48" fill="#0a1208" stroke="#FFD700" stroke-width="2" opacity="0.95"/>
<polygon points="147.83,330.00 137.83,347.32 117.83,347.32 107.83,330.00 117.83,312.68 137.83,312.68" fill="none" stroke="#FFD700" stroke-width="0.8" opacity="0.5"/>
<circle cx="127.8" cy="330.0" r="6" fill="#FFD700" opacity="0.95"/>
<polygon points="270.00,368.00 263.00,380.12 249.00,380.12 242.00,368.00 249.00,355.88 263.00,355.88" fill="#0a1208" stroke="#FFD700" stroke-width="1.4" opacity="0.7"/>
<circle cx="256.0" cy="368.0" r="3.5" fill="#FFD700" opacity="0.7"/>
<text x="256" y="274" font-family="system-ui,-apple-system,Arial Black,sans-serif" font-size="72" font-weight="900" fill="url(#gtext)" text-anchor="middle" letter-spacing="4">BARRO</text>
</svg>